<?xml version="1.0" standalone="no"?>
<!DOCTYPE svg PUBLIC "-//W3C//DTD SVG 20010904//EN"
 "http://www.w3.org/TR/2001/REC-SVG-20010904/DTD/svg10.dtd">
<svg version="1.0" xmlns="http://www.w3.org/2000/svg"
 width="1870.000000pt" height="1870.000000pt" viewBox="0 0 1870.000000 1870.000000"
 preserveAspectRatio="xMidYMid meet">
<metadata>
Created by potrace 1.14, written by Peter Selinger 2001-2017
</metadata>
<g transform="translate(0.000000,1870.000000) scale(0.100000,-0.100000)"
fill="#000000" stroke="none">
<path d="M8805 18679 c-1803 -111 -3497 -719 -4947 -1775 -401 -293 -733 -578
-1109 -953 -614 -615 -1103 -1253 -1520 -1985 -717 -1256 -1124 -2638 -1209
-4100 -13 -226 -13 -819 0 -1041 69 -1184 342 -2290 827 -3355 725 -1591 1921
-2981 3392 -3945 1151 -754 2454 -1245 3809 -1435 423 -59 693 -79 1157 -87
378 -6 648 3 980 33 2025 180 3925 1015 5445 2391 197 179 577 564 745 757
1204 1377 1971 3037 2230 4828 99 688 120 1448 59 2148 -264 3044 -2014 5775
-4679 7302 -1256 720 -2648 1132 -4110 1218 -197 11 -879 11 -1070 -1z m1205
-1103 c1291 -110 2462 -483 3570 -1139 457 -270 1013 -690 1402 -1056 l68 -63
0 -390 0 -390 -179 185 c-1626 1667 -3903 2511 -6211 2302 -283 -26 -764 -96
-783 -114 -4 -4 86 -11 200 -14 621 -19 1274 -144 1885 -361 1070 -381 2023
-1044 2758 -1921 1064 -1269 1590 -2901 1469 -4565 -95 -1319 -615 -2593
-1475 -3620 -1008 -1202 -2419 -1991 -3965 -2215 -362 -52 -475 -59 -924 -59
-449 0 -562 7 -924 59 -1948 282 -3679 1477 -4643 3205 -173 309 -332 661
-443 981 -34 98 -115 429 -115 470 0 20 -42 44 -48 28 -2 -5 -11 -9 -19 -9
-13 0 -14 -13 -9 -87 13 -171 17 -203 31 -203 9 0 16 -16 19 -42 3 -24 15
-115 26 -203 279 -2198 1507 -4180 3357 -5416 1146 -766 2431 -1200 3818
-1289 206 -13 715 -13 920 0 1772 114 3355 770 4675 1935 80 71 243 227 362
348 l218 219 2 -383 3 -384 154 155 c1199 1207 1999 2760 2276 4413 78 468
105 774 112 1268 7 501 -10 808 -72 1264 -164 1207 -606 2382 -1280 3400 -269
406 -453 643 -825 1058 l-52 57 378 -2 379 -3 125 -156 c1819 -2272 2394
-5316 1531 -8099 -719 -2319 -2373 -4249 -4556 -5320 -2094 -1027 -4511 -1179
-6725 -425 -1121 383 -2165 999 -3067 1811 -180 162 -540 529 -706 718 -1320
1507 -2076 3354 -2187 5346 -13 229 -13 717 0 950 101 1832 758 3561 1898
5000 l143 180 372 0 372 0 205 203 c870 858 1859 1486 2998 1903 715 262 1506
429 2237 474 99 6 203 12 230 14 128 9 844 -4 1015 -18z"/>
<path d="M5400 15644 c-36 -7 -105 -34 -155 -58 -158 -77 -268 -186 -345 -340
-81 -165 -75 -34 -75 -1736 0 -1712 -6 -1590 80 -1756 77 -150 179 -257 360
-377 215 -141 477 -250 1095 -454 794 -261 1050 -364 1358 -547 161 -96 265
-177 392 -305 168 -168 265 -323 335 -534 69 -207 68 -202 73 -1022 2 -537 0
-761 -8 -815 -46 -288 -240 -516 -520 -611 -87 -30 -106 -33 -220 -33 -149 -1
-214 14 -346 79 -156 76 -307 239 -364 393 -56 149 -53 107 -60 957 l-6 790
-27 100 c-63 235 -191 427 -391 589 -183 149 -373 251 -836 451 -478 206 -626
290 -753 425 -81 85 -124 166 -147 280 -18 82 -18 7 -16 -2425 1 -2367 2
-2514 19 -2575 70 -257 270 -458 532 -536 56 -17 146 -18 1340 -22 1339 -3
1538 1 1840 39 1004 127 1908 531 2685 1198 139 119 433 418 549 556 381 457
672 957 874 1502 68 181 93 325 83 474 -30 465 -364 799 -1086 1083 -327 129
-692 236 -1534 447 -1205 302 -1610 430 -2062 652 -301 149 -484 274 -664 456
-211 213 -320 413 -377 697 -15 76 -18 144 -18 464 0 430 5 468 80 618 82 162
189 269 350 347 128 63 202 78 355 73 102 -4 139 -10 205 -32 202 -69 369
-219 455 -410 61 -133 62 -146 70 -596 8 -428 11 -466 55 -595 90 -261 283
-478 573 -644 357 -204 758 -325 1757 -530 576 -118 806 -173 1065 -257 336
-108 558 -225 722 -382 160 -153 246 -341 248 -542 2 -147 18 -35 30 203 26
531 -37 1091 -180 1596 -238 840 -672 1582 -1285 2197 -196 196 -338 320 -550
479 -773 581 -1678 920 -2654 995 -85 6 -642 10 -1485 9 -1122 0 -1362 -3
-1416 -15z"/>
<path d="M17955 18675 c-198 -55 -350 -207 -411 -410 -29 -95 -25 -250 9 -343
36 -103 82 -174 155 -243 111 -104 250 -159 404 -159 260 0 475 160 564 420
30 87 26 262 -8 357 -32 89 -104 200 -166 253 -56 48 -165 105 -242 125 -68
18 -237 18 -305 0z m268 -120 c189 -49 315 -189 347 -387 30 -186 -81 -395
-253 -477 -138 -66 -275 -65 -414 4 -248 122 -329 433 -175 671 104 160 308
238 495 189z"/>
<path d="M17840 18105 l0 -315 70 0 70 0 0 125 0 125 40 0 c57 0 99 -42 157
-156 l48 -94 83 0 c45 0 82 2 82 5 0 14 -126 215 -151 241 l-30 31 24 7 c33 8
84 51 102 87 22 42 19 127 -6 168 -48 79 -92 91 -324 91 l-165 0 0 -315z m319
194 c56 -20 69 -79 26 -119 -22 -21 -38 -24 -115 -28 l-90 -4 0 81 0 81 74 0
c40 0 87 -5 105 -11z"/>
</g>
</svg>
